<svg width="834" height="192" viewBox="0 0 834 192" fill="none" xmlns="http://www.w3.org/2000/svg">
<path d="M336.8 26H398C412.933 26 426.2 28.9333 437.8 34.8C449.4 40.5333 458.4 48.7333 464.8 59.4C471.2 69.9333 474.4 82.1333 474.4 96C474.4 109.867 471.2 122.133 464.8 132.8C458.4 143.333 449.4 151.533 437.8 157.4C426.2 163.133 412.933 166 398 166H336.8V26ZM396.8 144C407.067 144 416.067 142.067 423.8 138.2C431.667 134.2 437.667 128.6 441.8 121.4C446.067 114.067 448.2 105.6 448.2 96C448.2 86.4 446.067 78 441.8 70.8C437.667 63.4667 431.667 57.8667 423.8 54C416.067 50 407.067 48 396.8 48H362.8V144H396.8ZM547.634 167.4C536.834 167.4 527.101 165.067 518.434 160.4C509.768 155.733 502.968 149.267 498.034 141C493.234 132.6 490.834 123.133 490.834 112.6C490.834 102.067 493.234 92.6667 498.034 84.4C502.968 76.1333 509.768 69.6667 518.434 65C527.101 60.3333 536.834 58 547.634 58C558.568 58 568.368 60.3333 577.034 65C585.701 69.6667 592.434 76.1333 597.234 84.4C602.168 92.6667 604.634 102.067 604.634 112.6C604.634 123.133 602.168 132.6 597.234 141C592.434 149.267 585.701 155.733 577.034 160.4C568.368 165.067 558.568 167.4 547.634 167.4ZM547.634 146C556.834 146 564.434 142.933 570.434 136.8C576.434 130.667 579.434 122.6 579.434 112.6C579.434 102.6 576.434 94.5333 570.434 88.4C564.434 82.2667 556.834 79.2 547.634 79.2C538.434 79.2 530.834 82.2667 524.834 88.4C518.968 94.5333 516.034 102.6 516.034 112.6C516.034 122.6 518.968 130.667 524.834 136.8C530.834 142.933 538.434 146 547.634 146ZM677.541 167.4C666.474 167.4 656.541 165.067 647.741 160.4C638.941 155.733 632.074 149.267 627.141 141C622.207 132.6 619.741 123.133 619.741 112.6C619.741 102.067 622.207 92.6667 627.141 84.4C632.074 76.1333 638.874 69.6667 647.541 65C656.341 60.3333 666.341 58 677.541 58C688.074 58 697.274 60.1333 705.141 64.4C713.141 68.6667 719.141 74.8 723.141 82.8L703.941 94C700.874 89.0667 697.007 85.4 692.341 83C687.807 80.4667 682.807 79.2 677.341 79.2C668.007 79.2 660.274 82.2667 654.141 88.4C648.007 94.4 644.941 102.467 644.941 112.6C644.941 122.733 647.941 130.867 653.941 137C660.074 143 667.874 146 677.341 146C682.807 146 687.807 144.8 692.341 142.4C697.007 139.867 700.874 136.133 703.941 131.2L723.141 142.4C719.007 150.4 712.941 156.6 704.941 161C697.074 165.267 687.941 167.4 677.541 167.4ZM777.752 167.4C769.085 167.4 760.618 166.267 752.352 164C744.085 161.733 737.485 158.867 732.552 155.4L742.152 136.4C746.952 139.6 752.685 142.2 759.352 144.2C766.152 146.067 772.818 147 779.352 147C794.285 147 801.752 143.067 801.752 135.2C801.752 131.467 799.818 128.867 795.952 127.4C792.218 125.933 786.152 124.533 777.752 123.2C768.952 121.867 761.752 120.333 756.152 118.6C750.685 116.867 745.885 113.867 741.752 109.6C737.752 105.2 735.752 99.1333 735.752 91.4C735.752 81.2667 739.952 73.2 748.352 67.2C756.885 61.0667 768.352 58 782.752 58C790.085 58 797.418 58.8667 804.752 60.6C812.085 62.2 818.085 64.4 822.752 67.2L813.152 86.2C804.085 80.8667 793.885 78.2 782.552 78.2C775.218 78.2 769.618 79.3333 765.752 81.6C762.018 83.7333 760.152 86.6 760.152 90.2C760.152 94.2 762.152 97.0667 766.152 98.8C770.285 100.4 776.618 101.933 785.152 103.4C793.685 104.733 800.685 106.267 806.152 108C811.618 109.733 816.285 112.667 820.152 116.8C824.152 120.933 826.152 126.8 826.152 134.4C826.152 144.4 821.818 152.4 813.152 158.4C804.485 164.4 792.685 167.4 777.752 167.4Z" fill="#FFBB29"/>
<path fill-rule="evenodd" clip-rule="evenodd" d="M280 0C297.673 0 312 14.3269 312 32V160C312 177.673 297.673 192 280 192H32C14.3269 192 0 177.673 0 160V32C0 14.3269 14.3269 0 32 0H280ZM154.6 166V144H69.6L152 43.4V26H36.6V48H117.6L35.2 148.6V166H154.6ZM274.064 120.6C274.331 117.4 274.464 114.933 274.464 113.2C274.464 102.267 272.131 92.6667 267.464 84.4C262.931 76 256.531 69.5333 248.264 65C240.131 60.3333 230.864 58 220.464 58C209.931 58 200.464 60.3333 192.064 65C183.664 69.6667 177.064 76.2 172.264 84.6C167.597 92.8667 165.264 102.2 165.264 112.6C165.264 123.133 167.664 132.6 172.464 141C177.397 149.267 184.331 155.733 193.264 160.4C202.197 165.067 212.531 167.4 224.264 167.4C233.464 167.4 241.731 165.933 249.064 163C256.397 160.067 262.464 155.733 267.264 150L253.864 134.6C246.264 142.333 236.597 146.2 224.864 146.2C215.664 146.2 207.931 143.933 201.664 139.4C195.531 134.733 191.731 128.467 190.264 120.6H274.064ZM200.064 85.2C205.664 80.4 212.464 78 220.464 78C228.597 78 235.397 80.4 240.864 85.2C246.331 90 249.597 96.2667 250.664 104H190.064C191.264 96.1333 194.597 89.8667 200.064 85.2Z" fill="#FFBB29"/>
</svg>
