<svg width="779" height="192" viewBox="0 0 779 192" fill="none" xmlns="http://www.w3.org/2000/svg">
<path d="M23.8867 6.97656H36.2891C44.5573 6.97656 49.5703 7.26953 51.3281 7.85547C53.151 8.44141 54.0625 10.0365 54.0625 12.6406C54.0625 15.1797 53.2812 16.8724 51.7188 17.7188C50.2214 18.5 46.8359 19.444 41.5625 20.5508C36.3542 21.6576 33.2943 23.8711 32.3828 27.1914C31.2109 31.4232 30.625 45.974 30.625 70.8438V141.449L30.7227 143.891C30.7878 145.518 30.8203 147.081 30.8203 148.578C30.8203 158.734 31.8945 165.212 34.043 168.012C35.1497 169.444 37.9167 170.551 42.3438 171.332C46.7708 172.178 49.8633 173.025 51.6211 173.871C53.3789 174.783 54.2578 176.54 54.2578 179.145C54.2578 181.814 53.2487 183.441 51.2305 184.027C49.2773 184.613 45.1758 184.906 38.9258 184.906H21.6406C14.8698 184.906 10.8008 184.027 9.43359 182.27C8.13151 180.512 7.48047 175.173 7.48047 166.254V28.2656C7.48047 18.1094 8.09896 12.0221 9.33594 10.0039C10.5729 7.98568 15.4232 6.97656 23.8867 6.97656ZM110.02 20.3555H128.867C156.016 20.3555 170.729 20.681 173.008 21.332C175.352 21.918 176.523 24.2292 176.523 28.2656C176.523 32.3021 164.967 51.2799 141.855 85.1992C118.743 119.053 107.188 136.501 107.188 137.543C107.188 140.342 112.689 141.742 123.691 141.742C134.694 141.742 142.865 140.635 148.203 138.422C153.542 136.143 158.815 132.4 164.023 127.191C169.232 121.983 173.138 119.379 175.742 119.379C178.802 119.379 180.332 121.983 180.332 127.191C180.332 138.454 178.802 146.592 175.742 151.605C173.919 154.6 168.939 156.098 160.801 156.098H85.4102C79.9414 156.098 76.3932 155.772 74.7656 155.121C72.0964 154.014 70.7617 151.703 70.7617 148.188C70.7617 144.607 72.4219 140.212 75.7422 135.004C79.0625 129.73 90.5208 112.836 110.117 84.3203C129.714 55.8047 139.512 40.9609 139.512 39.7891C139.512 36.2734 135.605 34.5156 127.793 34.5156C119.98 34.5156 113.665 35.362 108.848 37.0547C104.03 38.7474 98.3333 41.9701 91.7578 46.7227C85.1823 51.4102 80.7552 53.7539 78.4766 53.7539C75.3516 53.7539 73.7891 50.9544 73.7891 45.3555C73.7891 32.5299 75.2865 24.8802 78.2812 22.4062C79.9089 21.0391 90.4883 20.3555 110.02 20.3555ZM239.707 72.6992H236.875C232.773 72.6992 228.835 74.8477 225.059 79.1445C221.348 83.3763 219.492 88.4544 219.492 94.3789V95.9414C219.492 98.3503 220.827 99.5547 223.496 99.5547L224.473 99.75H231.406L231.895 99.6523L248.203 98.6758C249.18 98.4805 249.831 98.3828 250.156 98.3828C253.477 98.3828 255.137 96.6576 255.137 93.207V89.9844C255.137 85.6224 253.574 81.651 250.449 78.0703C247.324 74.4896 243.743 72.6992 239.707 72.6992ZM220.664 119.184C220.664 125.694 223.724 131.326 229.844 136.078C234.401 139.659 240.195 141.449 247.227 141.449C250.417 141.449 255.137 140.538 261.387 138.715C267.702 136.892 271.348 135.98 272.324 135.98C275.254 135.98 276.719 137.576 276.719 140.766C276.719 144.542 272.812 148.383 265 152.289C257.253 156.13 249.212 158.051 240.879 158.051H236.582C236.452 158.051 236.289 158.051 236.094 158.051C230.82 158.051 225.449 156.977 219.98 154.828C209.173 150.661 201.491 143.37 196.934 132.953C193.809 125.792 192.246 118.988 192.246 112.543V108.051C192.246 101.475 193.385 95.1276 195.664 89.0078C199.961 77.4844 207.546 69.1836 218.418 64.1055C224.928 61.1107 231.764 59.6133 238.926 59.6133H241.172C251.784 59.6133 260.736 62.901 268.027 69.4766C271.868 72.9922 274.798 77.224 276.816 82.1719C278.9 87.1198 279.941 92.1654 279.941 97.3086C279.941 102.387 277.435 105.74 272.422 107.367C265.391 109.646 252.37 110.785 233.359 110.785C228.281 110.785 224.896 111.436 223.203 112.738C221.51 113.975 220.664 116.124 220.664 119.184ZM327.891 184.809H308.164C301.979 184.809 298.138 184.418 296.641 183.637C295.208 182.855 294.492 181.228 294.492 178.754C294.492 175.564 297.129 173.35 302.402 172.113C309.954 170.29 314.219 168.565 315.195 166.938C316.888 164.073 317.734 157.497 317.734 147.211L317.93 142.426L318.027 135.102V90.668C318.027 53.0378 317.539 32.2044 316.562 28.168C315.651 24.0664 311.712 21.3971 304.746 20.1602C297.845 18.9232 294.395 16.4818 294.395 12.8359C294.395 10.4271 295.111 8.86458 296.543 8.14844C297.975 7.36719 302.891 6.97656 311.289 6.97656H326.035C332.871 6.97656 337.103 7.82292 338.73 9.51562C340.358 11.2083 341.172 17.1003 341.172 27.1914V108.734C341.172 153.786 340.911 177.419 340.391 179.633C339.609 183.083 335.443 184.809 327.891 184.809ZM413.535 143.891H415.195C421.12 143.891 425.514 141.645 428.379 137.152C430.332 134.092 431.309 127.224 431.309 116.547V102.973C431.309 91.7096 430.137 84.0273 427.793 79.9258C425.514 75.7591 421.055 73.6758 414.414 73.6758H413.535C407.546 73.6758 402.5 76.7682 398.398 82.9531C394.297 89.0729 392.246 96.625 392.246 105.609V111.957C392.246 120.29 393.841 127.126 397.031 132.465C401.589 140.082 407.09 143.891 413.535 143.891ZM427.695 62.543C430.755 62.543 432.285 59.0273 432.285 51.9961C432.285 40.5378 429.811 32.6276 424.863 28.2656C421.152 25.0755 419.297 22.9596 419.297 21.918C419.297 19.8346 422.357 17.8164 428.477 15.8633C434.596 13.9102 440.163 12.9336 445.176 12.9336C450.189 12.9336 453.444 13.487 454.941 14.5938C456.504 15.7005 457.546 18.1094 458.066 21.8203C458.652 25.5312 458.945 43.5977 458.945 76.0195C458.945 108.376 459.303 126.671 460.02 130.902C460.736 135.069 462.07 138.357 464.023 140.766C464.154 140.961 465.391 141.905 467.734 143.598C470.078 145.29 471.25 146.69 471.25 147.797V149.457C471.25 150.434 470.599 151.475 469.297 152.582C465.391 155.837 456.96 157.465 444.004 157.465C440.618 157.465 438.014 156.293 436.191 153.949C434.368 151.605 433.392 150.434 433.262 150.434C432.025 150.499 429.909 151.312 426.914 152.875C419.948 156.651 413.503 158.539 407.578 158.539C407.448 158.539 407.35 158.539 407.285 158.539H404.746C399.993 158.539 395.273 157.432 390.586 155.219C380.885 150.661 374.049 142.849 370.078 131.781C368.06 126.052 367.051 120.29 367.051 114.496V111.859C367.051 111.664 367.051 111.501 367.051 111.371C367.051 103.884 368.385 96.8529 371.055 90.2773C378.672 71.332 392.604 61.8594 412.852 61.8594C417.865 61.8594 420.827 61.8919 421.738 61.957L423.789 62.1523C426.003 62.4128 427.305 62.543 427.695 62.543ZM532.383 72.3086H530.527C524.928 72.3086 520.339 75.4661 516.758 81.7812C513.242 88.0964 511.484 95.6484 511.484 104.438V109.906C511.484 119.802 513.535 128.168 517.637 135.004C521.738 141.84 526.654 145.258 532.383 145.258H534.238C539.251 145.258 543.613 142.719 547.324 137.641C551.1 132.497 552.988 125.661 552.988 117.133L553.184 115.082L553.281 110.98V109.906L553.184 108.832V106.781C553.053 105.349 552.988 104.307 552.988 103.656C552.988 94.9974 550.938 87.6081 546.836 81.4883C542.734 75.3685 537.917 72.3086 532.383 72.3086ZM532.48 59.3203H537.363C543.158 59.3203 549.115 60.6875 555.234 63.4219C566.888 68.6302 574.896 77.0938 579.258 88.8125C581.471 94.8672 582.578 101.052 582.578 107.367V109.125C582.578 115.896 581.211 122.536 578.477 129.047C575.742 135.557 572.064 140.961 567.441 145.258C557.806 153.982 546.738 158.344 534.238 158.344C533.262 158.344 532.285 158.311 531.309 158.246C525.059 158.246 518.906 157.009 512.852 154.535C506.862 151.996 501.947 148.643 498.105 144.477C489.837 135.362 485.703 123.936 485.703 110.199V108.539L485.801 106.879C485.866 100.824 487.005 94.8346 489.219 88.9102C493.516 77.582 501.393 69.2161 512.852 63.8125C519.297 60.8177 525.84 59.3203 532.48 59.3203ZM676.914 135.199C679.453 135.199 680.723 136.957 680.723 140.473C680.723 143.923 676.621 147.699 668.418 151.801C660.215 155.902 652.207 157.953 644.395 157.953H642.148C635.703 157.953 629.583 156.684 623.789 154.145C612.461 149.197 604.648 140.766 600.352 128.852C598.268 122.992 597.227 117.165 597.227 111.371V109.027C597.227 95.8763 601.556 84.4831 610.215 74.8477C614.577 70.0299 619.85 66.3516 626.035 63.8125C632.285 61.2083 638.698 59.9062 645.273 59.9062C657.643 59.9062 667.181 61.7617 673.887 65.4727C677.858 67.6862 679.844 71.2995 679.844 76.3125C679.844 85.362 676.979 89.8867 671.25 89.8867C667.734 89.8867 663.568 87.3151 658.75 82.1719C653.997 77.0286 648.952 74.457 643.613 74.457C637.168 74.457 631.862 78.4609 627.695 86.4688C625.352 91.026 624.147 98.2201 624.082 108.051C624.082 108.181 624.082 108.311 624.082 108.441C624.082 117.882 626.523 125.661 631.406 131.781C636.354 137.966 642.637 141.059 650.254 141.059C654.486 141.059 659.661 140.082 665.781 138.129C671.966 136.176 675.677 135.199 676.914 135.199ZM761.875 64.0078C764.805 65.7005 766.27 69.2812 766.27 74.75C766.27 80.2188 765.879 83.832 765.098 85.5898C764.316 87.3477 762.786 88.2266 760.508 88.2266C756.862 88.2266 752.923 85.5898 748.691 80.3164C744.525 75.043 739.251 72.4062 732.871 72.4062C729.225 72.4062 726.328 73.3503 724.18 75.2383C722.031 77.1263 720.957 79.2096 720.957 81.4883C720.957 85.3945 722.845 88.6497 726.621 91.2539C728.444 92.4909 734.271 95.1927 744.102 99.3594C753.997 103.461 761.061 107.725 765.293 112.152C769.59 116.514 771.738 122.471 771.738 130.023C771.738 137.576 768.516 144.151 762.07 149.75C755.625 155.349 747.357 158.148 737.266 158.148H732.09C719.46 158.148 709.987 156.651 703.672 153.656C699.245 151.573 697.031 146.625 697.031 138.812C697.031 131 698.496 127.094 701.426 127.094C705.137 127.094 709.727 130.121 715.195 136.176C720.729 142.23 726.719 145.258 733.164 145.258C737.07 145.258 740.358 144.444 743.027 142.816C745.762 141.124 747.129 138.52 747.129 135.004C747.129 131.423 745.241 128.233 741.465 125.434C739.447 123.936 733.978 121.299 725.059 117.523C716.204 113.682 709.889 109.971 706.113 106.391C700.449 101.052 697.617 94.5091 697.617 86.7617C697.617 78.9492 700.938 72.5039 707.578 67.4258C714.219 62.2826 721.966 59.7109 730.82 59.7109H733.457C747.389 59.7109 756.862 61.1432 761.875 64.0078Z" fill="#3F65F9"/>
</svg>
