<svg width="754" height="192" viewBox="0 0 754 192" fill="none" xmlns="http://www.w3.org/2000/svg">
<path d="M390.797 53.9609V74H379.078V17.125H401.266C405.536 17.125 409.286 17.9062 412.516 19.4688C415.771 21.0312 418.271 23.2578 420.016 26.1484C421.76 29.013 422.633 32.2812 422.633 35.9531C422.633 41.526 420.719 45.9271 416.891 49.1562C413.089 52.3594 407.815 53.9609 401.07 53.9609H390.797ZM390.797 44.4688H401.266C404.365 44.4688 406.721 43.7396 408.336 42.2812C409.977 40.8229 410.797 38.7396 410.797 36.0312C410.797 33.2448 409.977 30.9922 408.336 29.2734C406.695 27.5547 404.43 26.6693 401.539 26.6172H390.797V44.4688ZM427.672 52.4766C427.672 48.2839 428.479 44.5469 430.094 41.2656C431.708 37.9844 434.026 35.4453 437.047 33.6484C440.094 31.8516 443.622 30.9531 447.633 30.9531C453.336 30.9531 457.984 32.6979 461.578 36.1875C465.198 39.6771 467.216 44.4167 467.633 50.4062L467.711 53.2969C467.711 59.7812 465.901 64.9896 462.281 68.9219C458.661 72.8281 453.805 74.7812 447.711 74.7812C441.617 74.7812 436.747 72.8281 433.102 68.9219C429.482 65.0156 427.672 59.7031 427.672 52.9844V52.4766ZM438.961 53.2969C438.961 57.3073 439.716 60.3802 441.227 62.5156C442.737 64.625 444.898 65.6797 447.711 65.6797C450.445 65.6797 452.581 64.638 454.117 62.5547C455.654 60.4453 456.422 57.0859 456.422 52.4766C456.422 48.5443 455.654 45.4974 454.117 43.3359C452.581 41.1745 450.419 40.0938 447.633 40.0938C444.872 40.0938 442.737 41.1745 441.227 43.3359C439.716 45.4714 438.961 48.7917 438.961 53.2969ZM511.422 58.6484L516.969 31.7344H527.867L517.086 74H507.633L499.625 47.3984L491.617 74H482.203L471.422 31.7344H482.32L487.828 58.6094L495.562 31.7344H503.727L511.422 58.6484ZM552.945 74.7812C546.747 74.7812 541.695 72.8802 537.789 69.0781C533.909 65.276 531.969 60.2109 531.969 53.8828V52.7891C531.969 48.5443 532.789 44.7552 534.43 41.4219C536.07 38.0625 538.388 35.4844 541.383 33.6875C544.404 31.8646 547.841 30.9531 551.695 30.9531C557.477 30.9531 562.021 32.776 565.328 36.4219C568.661 40.0677 570.328 45.237 570.328 51.9297V56.5391H543.414C543.779 59.2995 544.872 61.513 546.695 63.1797C548.544 64.8464 550.875 65.6797 553.688 65.6797C558.036 65.6797 561.435 64.1042 563.883 60.9531L569.43 67.1641C567.737 69.5599 565.445 71.4349 562.555 72.7891C559.664 74.1172 556.461 74.7812 552.945 74.7812ZM551.656 40.0938C549.417 40.0938 547.594 40.849 546.188 42.3594C544.807 43.8698 543.922 46.0312 543.531 48.8438H559.234V47.9453C559.182 45.4453 558.505 43.5182 557.203 42.1641C555.901 40.7839 554.052 40.0938 551.656 40.0938ZM600.523 42.3203C598.987 42.112 597.633 42.0078 596.461 42.0078C592.19 42.0078 589.391 43.4531 588.062 46.3438V74H576.773V31.7344H587.438L587.75 36.7734C590.016 32.8932 593.154 30.9531 597.164 30.9531C598.414 30.9531 599.586 31.1224 600.68 31.4609L600.523 42.3203ZM624.664 74.7812C618.466 74.7812 613.414 72.8802 609.508 69.0781C605.628 65.276 603.688 60.2109 603.688 53.8828V52.7891C603.688 48.5443 604.508 44.7552 606.148 41.4219C607.789 38.0625 610.107 35.4844 613.102 33.6875C616.122 31.8646 619.56 30.9531 623.414 30.9531C629.195 30.9531 633.74 32.776 637.047 36.4219C640.38 40.0677 642.047 45.237 642.047 51.9297V56.5391H615.133C615.497 59.2995 616.591 61.513 618.414 63.1797C620.263 64.8464 622.594 65.6797 625.406 65.6797C629.755 65.6797 633.154 64.1042 635.602 60.9531L641.148 67.1641C639.456 69.5599 637.164 71.4349 634.273 72.7891C631.383 74.1172 628.18 74.7812 624.664 74.7812ZM623.375 40.0938C621.135 40.0938 619.312 40.849 617.906 42.3594C616.526 43.8698 615.641 46.0312 615.25 48.8438H630.953V47.9453C630.901 45.4453 630.224 43.5182 628.922 42.1641C627.62 40.7839 625.771 40.0938 623.375 40.0938ZM646.734 52.5547C646.734 45.9661 648.206 40.7188 651.148 36.8125C654.117 32.9062 658.167 30.9531 663.297 30.9531C667.411 30.9531 670.81 32.4896 673.492 35.5625V14H684.82V74H674.625L674.078 69.5078C671.266 73.0234 667.646 74.7812 663.219 74.7812C658.245 74.7812 654.247 72.8281 651.227 68.9219C648.232 64.9896 646.734 59.5339 646.734 52.5547ZM658.023 53.375C658.023 57.3333 658.714 60.3672 660.094 62.4766C661.474 64.5859 663.479 65.6406 666.109 65.6406C669.599 65.6406 672.06 64.1693 673.492 61.2266V44.5469C672.086 41.6042 669.651 40.1328 666.188 40.1328C660.745 40.1328 658.023 44.5469 658.023 53.375ZM416.422 147.258C416.422 154.029 414.977 159.315 412.086 163.117C409.195 166.893 405.159 168.781 399.977 168.781C395.393 168.781 391.734 167.023 389 163.508L388.492 168H378.336V108H389.625V129.523C392.229 126.477 395.654 124.953 399.898 124.953C405.055 124.953 409.091 126.854 412.008 130.656C414.951 134.432 416.422 139.758 416.422 146.633V147.258ZM405.133 146.438C405.133 142.167 404.456 139.055 403.102 137.102C401.747 135.122 399.729 134.133 397.047 134.133C393.453 134.133 390.979 135.604 389.625 138.547V155.227C391.005 158.195 393.505 159.68 397.125 159.68C400.771 159.68 403.167 157.883 404.312 154.289C404.859 152.57 405.133 149.953 405.133 146.438ZM438.727 152.023L446.539 125.734H458.648L441.656 174.562L440.719 176.789C438.193 182.31 434.026 185.07 428.219 185.07C426.578 185.07 424.911 184.823 423.219 184.328V175.773L424.938 175.812C427.073 175.812 428.661 175.487 429.703 174.836C430.771 174.185 431.604 173.104 432.203 171.594L433.531 168.117L418.727 125.734H430.875L438.727 152.023ZM496.188 158.586H524.859V168H481.539V161.125L509.664 120.617H481.578V111.125H524.234V117.844L496.188 158.586ZM550.133 168.781C543.935 168.781 538.883 166.88 534.977 163.078C531.096 159.276 529.156 154.211 529.156 147.883V146.789C529.156 142.544 529.977 138.755 531.617 135.422C533.258 132.062 535.576 129.484 538.57 127.688C541.591 125.865 545.029 124.953 548.883 124.953C554.664 124.953 559.208 126.776 562.516 130.422C565.849 134.068 567.516 139.237 567.516 145.93V150.539H540.602C540.966 153.299 542.06 155.513 543.883 157.18C545.732 158.846 548.062 159.68 550.875 159.68C555.224 159.68 558.622 158.104 561.07 154.953L566.617 161.164C564.924 163.56 562.633 165.435 559.742 166.789C556.852 168.117 553.648 168.781 550.133 168.781ZM548.844 134.094C546.604 134.094 544.781 134.849 543.375 136.359C541.995 137.87 541.109 140.031 540.719 142.844H556.422V141.945C556.37 139.445 555.693 137.518 554.391 136.164C553.089 134.784 551.24 134.094 548.844 134.094ZM574.703 168V111.125H592.203C597.203 111.125 601.669 112.258 605.602 114.523C609.56 116.763 612.646 119.966 614.859 124.133C617.073 128.273 618.18 132.987 618.18 138.273V140.891C618.18 146.177 617.086 150.878 614.898 154.992C612.737 159.107 609.677 162.297 605.719 164.562C601.76 166.828 597.294 167.974 592.32 168H574.703ZM586.422 120.617V158.586H592.086C596.669 158.586 600.172 157.089 602.594 154.094C605.016 151.099 606.253 146.815 606.305 141.242V138.234C606.305 132.453 605.107 128.078 602.711 125.109C600.315 122.115 596.812 120.617 592.203 120.617H586.422ZM624.234 146.477C624.234 142.284 625.042 138.547 626.656 135.266C628.271 131.984 630.589 129.445 633.609 127.648C636.656 125.852 640.185 124.953 644.195 124.953C649.898 124.953 654.547 126.698 658.141 130.188C661.76 133.677 663.779 138.417 664.195 144.406L664.273 147.297C664.273 153.781 662.464 158.99 658.844 162.922C655.224 166.828 650.367 168.781 644.273 168.781C638.18 168.781 633.31 166.828 629.664 162.922C626.044 159.016 624.234 153.703 624.234 146.984V146.477ZM635.523 147.297C635.523 151.307 636.279 154.38 637.789 156.516C639.299 158.625 641.461 159.68 644.273 159.68C647.008 159.68 649.143 158.638 650.68 156.555C652.216 154.445 652.984 151.086 652.984 146.477C652.984 142.544 652.216 139.497 650.68 137.336C649.143 135.174 646.982 134.094 644.195 134.094C641.435 134.094 639.299 135.174 637.789 137.336C636.279 139.471 635.523 142.792 635.523 147.297ZM688.805 159.68C690.888 159.68 692.581 159.107 693.883 157.961C695.185 156.815 695.862 155.292 695.914 153.391H706.5C706.474 156.255 705.693 158.885 704.156 161.281C702.62 163.651 700.51 165.5 697.828 166.828C695.172 168.13 692.229 168.781 689 168.781C682.958 168.781 678.193 166.867 674.703 163.039C671.214 159.185 669.469 153.872 669.469 147.102V146.359C669.469 139.849 671.201 134.654 674.664 130.773C678.128 126.893 682.88 124.953 688.922 124.953C694.208 124.953 698.44 126.464 701.617 129.484C704.82 132.479 706.448 136.477 706.5 141.477H695.914C695.862 139.289 695.185 137.518 693.883 136.164C692.581 134.784 690.862 134.094 688.727 134.094C686.096 134.094 684.104 135.057 682.75 136.984C681.422 138.885 680.758 141.984 680.758 146.281V147.453C680.758 151.802 681.422 154.927 682.75 156.828C684.078 158.729 686.096 159.68 688.805 159.68ZM735.836 156.32C735.836 154.94 735.146 153.859 733.766 153.078C732.411 152.271 730.224 151.555 727.203 150.93C717.151 148.82 712.125 144.549 712.125 138.117C712.125 134.367 713.674 131.242 716.773 128.742C719.898 126.216 723.974 124.953 729 124.953C734.365 124.953 738.648 126.216 741.852 128.742C745.081 131.268 746.695 134.549 746.695 138.586H735.406C735.406 136.971 734.885 135.643 733.844 134.602C732.802 133.534 731.174 133 728.961 133C727.06 133 725.589 133.43 724.547 134.289C723.505 135.148 722.984 136.242 722.984 137.57C722.984 138.82 723.57 139.836 724.742 140.617C725.94 141.372 727.945 142.036 730.758 142.609C733.57 143.156 735.94 143.781 737.867 144.484C743.831 146.672 746.812 150.461 746.812 155.852C746.812 159.706 745.159 162.831 741.852 165.227C738.544 167.596 734.273 168.781 729.039 168.781C725.497 168.781 722.346 168.156 719.586 166.906C716.852 165.63 714.703 163.898 713.141 161.711C711.578 159.497 710.797 157.115 710.797 154.562H721.5C721.604 156.568 722.346 158.104 723.727 159.172C725.107 160.24 726.956 160.773 729.273 160.773C731.435 160.773 733.062 160.37 734.156 159.562C735.276 158.729 735.836 157.648 735.836 156.32Z" fill="black"/>
<path d="M23.8867 6.97656H36.2891C44.5573 6.97656 49.5703 7.26953 51.3281 7.85547C53.151 8.44141 54.0625 10.0365 54.0625 12.6406C54.0625 15.1797 53.2812 16.8724 51.7188 17.7188C50.2214 18.5 46.8359 19.444 41.5625 20.5508C36.3542 21.6576 33.2943 23.8711 32.3828 27.1914C31.2109 31.4232 30.625 45.974 30.625 70.8438V141.449L30.7227 143.891C30.7878 145.518 30.8203 147.081 30.8203 148.578C30.8203 158.734 31.8945 165.212 34.043 168.012C35.1497 169.444 37.9167 170.551 42.3438 171.332C46.7708 172.178 49.8633 173.025 51.6211 173.871C53.3789 174.783 54.2578 176.54 54.2578 179.145C54.2578 181.814 53.2487 183.441 51.2305 184.027C49.2773 184.613 45.1758 184.906 38.9258 184.906H21.6406C14.8698 184.906 10.8008 184.027 9.43359 182.27C8.13151 180.512 7.48047 175.173 7.48047 166.254V28.2656C7.48047 18.1094 8.09896 12.0221 9.33594 10.0039C10.5729 7.98568 15.4232 6.97656 23.8867 6.97656ZM110.02 20.3555H128.867C156.016 20.3555 170.729 20.681 173.008 21.332C175.352 21.918 176.523 24.2292 176.523 28.2656C176.523 32.3021 164.967 51.2799 141.855 85.1992C118.743 119.053 107.188 136.501 107.188 137.543C107.188 140.342 112.689 141.742 123.691 141.742C134.694 141.742 142.865 140.635 148.203 138.422C153.542 136.143 158.815 132.4 164.023 127.191C169.232 121.983 173.138 119.379 175.742 119.379C178.802 119.379 180.332 121.983 180.332 127.191C180.332 138.454 178.802 146.592 175.742 151.605C173.919 154.6 168.939 156.098 160.801 156.098H85.4102C79.9414 156.098 76.3932 155.772 74.7656 155.121C72.0964 154.014 70.7617 151.703 70.7617 148.188C70.7617 144.607 72.4219 140.212 75.7422 135.004C79.0625 129.73 90.5208 112.836 110.117 84.3203C129.714 55.8047 139.512 40.9609 139.512 39.7891C139.512 36.2734 135.605 34.5156 127.793 34.5156C119.98 34.5156 113.665 35.362 108.848 37.0547C104.03 38.7474 98.3333 41.9701 91.7578 46.7227C85.1823 51.4102 80.7552 53.7539 78.4766 53.7539C75.3516 53.7539 73.7891 50.9544 73.7891 45.3555C73.7891 32.5299 75.2865 24.8802 78.2812 22.4062C79.9089 21.0391 90.4883 20.3555 110.02 20.3555ZM239.707 72.6992H236.875C232.773 72.6992 228.835 74.8477 225.059 79.1445C221.348 83.3763 219.492 88.4544 219.492 94.3789V95.9414C219.492 98.3503 220.827 99.5547 223.496 99.5547L224.473 99.75H231.406L231.895 99.6523L248.203 98.6758C249.18 98.4805 249.831 98.3828 250.156 98.3828C253.477 98.3828 255.137 96.6576 255.137 93.207V89.9844C255.137 85.6224 253.574 81.651 250.449 78.0703C247.324 74.4896 243.743 72.6992 239.707 72.6992ZM220.664 119.184C220.664 125.694 223.724 131.326 229.844 136.078C234.401 139.659 240.195 141.449 247.227 141.449C250.417 141.449 255.137 140.538 261.387 138.715C267.702 136.892 271.348 135.98 272.324 135.98C275.254 135.98 276.719 137.576 276.719 140.766C276.719 144.542 272.812 148.383 265 152.289C257.253 156.13 249.212 158.051 240.879 158.051H236.582C236.452 158.051 236.289 158.051 236.094 158.051C230.82 158.051 225.449 156.977 219.98 154.828C209.173 150.661 201.491 143.37 196.934 132.953C193.809 125.792 192.246 118.988 192.246 112.543V108.051C192.246 101.475 193.385 95.1276 195.664 89.0078C199.961 77.4844 207.546 69.1836 218.418 64.1055C224.928 61.1107 231.764 59.6133 238.926 59.6133H241.172C251.784 59.6133 260.736 62.901 268.027 69.4766C271.868 72.9922 274.798 77.224 276.816 82.1719C278.9 87.1198 279.941 92.1654 279.941 97.3086C279.941 102.387 277.435 105.74 272.422 107.367C265.391 109.646 252.37 110.785 233.359 110.785C228.281 110.785 224.896 111.436 223.203 112.738C221.51 113.975 220.664 116.124 220.664 119.184ZM327.891 184.809H308.164C301.979 184.809 298.138 184.418 296.641 183.637C295.208 182.855 294.492 181.228 294.492 178.754C294.492 175.564 297.129 173.35 302.402 172.113C309.954 170.29 314.219 168.565 315.195 166.938C316.888 164.073 317.734 157.497 317.734 147.211L317.93 142.426L318.027 135.102V90.668C318.027 53.0378 317.539 32.2044 316.562 28.168C315.651 24.0664 311.712 21.3971 304.746 20.1602C297.845 18.9232 294.395 16.4818 294.395 12.8359C294.395 10.4271 295.111 8.86458 296.543 8.14844C297.975 7.36719 302.891 6.97656 311.289 6.97656H326.035C332.871 6.97656 337.103 7.82292 338.73 9.51562C340.358 11.2083 341.172 17.1003 341.172 27.1914V108.734C341.172 153.786 340.911 177.419 340.391 179.633C339.609 183.083 335.443 184.809 327.891 184.809Z" fill="black"/>
</svg>
